<svg xmlns="http://www.w3.org/2000/svg" viewBox="0 0 400 240">
  <defs>
    <linearGradient id="bg" x1="0%" y1="0%" x2="100%" y2="100%">
      <stop offset="0%" style="stop-color:#1a5276"/>
      <stop offset="100%" style="stop-color:#2980b9"/>
    </linearGradient>
  </defs>
  <rect width="400" height="240" fill="url(#bg)"/>
  <!-- Candlestick chart -->
  <g transform="translate(80,40)" opacity="0.9">
    <!-- Candle 1 - green -->
    <line x1="30" y1="30" x2="30" y2="140" stroke="#2ecc71" stroke-width="2"/>
    <rect x="20" y="60" width="20" height="50" fill="#2ecc71" rx="2"/>
    <!-- Candle 2 - red -->
    <line x1="70" y1="20" x2="70" y2="150" stroke="#e74c3c" stroke-width="2"/>
    <rect x="60" y="40" width="20" height="70" fill="#e74c3c" rx="2"/>
    <!-- Candle 3 - green -->
    <line x1="110" y1="10" x2="110" y2="130" stroke="#2ecc71" stroke-width="2"/>
    <rect x="100" y="30" width="20" height="60" fill="#2ecc71" rx="2"/>
    <!-- Candle 4 - red -->
    <line x1="150" y1="25" x2="150" y2="145" stroke="#e74c3c" stroke-width="2"/>
    <rect x="140" y="50" width="20" height="55" fill="#e74c3c" rx="2"/>
    <!-- Candle 5 - green -->
    <line x1="190" y1="5" x2="190" y2="120" stroke="#2ecc71" stroke-width="2"/>
    <rect x="180" y="20" width="20" height="65" fill="#2ecc71" rx="2"/>
  </g>
  <!-- Subtle grid lines -->
  <g opacity="0.15" stroke="#fff" stroke-width="0.5">
    <line x1="60" y1="60" x2="340" y2="60"/>
    <line x1="60" y1="100" x2="340" y2="100"/>
    <line x1="60" y1="140" x2="340" y2="140"/>
    <line x1="60" y1="180" x2="340" y2="180"/>
  </g>
</svg>
