<svg xmlns="http://www.w3.org/2000/svg" viewBox="0 0 400 240">
  <defs>
    <linearGradient id="bg" x1="0%" y1="0%" x2="100%" y2="100%">
      <stop offset="0%" style="stop-color:#1e8449"/>
      <stop offset="100%" style="stop-color:#27ae60"/>
    </linearGradient>
  </defs>
  <rect width="400" height="240" fill="url(#bg)"/>
  <!-- Blockchain blocks -->
  <g opacity="0.9">
    <!-- Block 1 -->
    <rect x="30" y="85" width="80" height="70" rx="6" fill="rgba(255,255,255,0.15)" stroke="#fff" stroke-width="1.5"/>
    <text x="70" y="110" text-anchor="middle" fill="#fff" font-size="9" font-family="sans-serif">Stock</text>
    <text x="70" y="124" text-anchor="middle" fill="#fff" font-size="9" font-family="sans-serif">Token</text>
    <text x="70" y="145" text-anchor="middle" fill="#fff" font-size="7" font-family="sans-serif" opacity="0.7">ERC-20</text>
    <!-- Chain link 1 -->
    <line x1="110" y1="120" x2="140" y2="120" stroke="#fff" stroke-width="2" opacity="0.6"/>
    <circle cx="125" cy="120" r="3" fill="#fff" opacity="0.5"/>
    <!-- Block 2 -->
    <rect x="140" y="85" width="80" height="70" rx="6" fill="rgba(255,255,255,0.15)" stroke="#fff" stroke-width="1.5"/>
    <text x="180" y="110" text-anchor="middle" fill="#fff" font-size="9" font-family="sans-serif">Bond</text>
    <text x="180" y="124" text-anchor="middle" fill="#fff" font-size="9" font-family="sans-serif">Token</text>
    <text x="180" y="145" text-anchor="middle" fill="#fff" font-size="7" font-family="sans-serif" opacity="0.7">ERC-20</text>
    <!-- Chain link 2 -->
    <line x1="220" y1="120" x2="250" y2="120" stroke="#fff" stroke-width="2" opacity="0.6"/>
    <circle cx="235" cy="120" r="3" fill="#fff" opacity="0.5"/>
    <!-- Block 3 -->
    <rect x="250" y="85" width="80" height="70" rx="6" fill="rgba(255,255,255,0.15)" stroke="#fff" stroke-width="1.5"/>
    <text x="290" y="110" text-anchor="middle" fill="#fff" font-size="9" font-family="sans-serif">Options</text>
    <text x="290" y="124" text-anchor="middle" fill="#fff" font-size="9" font-family="sans-serif">Token</text>
    <text x="290" y="145" text-anchor="middle" fill="#fff" font-size="7" font-family="sans-serif" opacity="0.7">ERC-1155</text>
  </g>
  <!-- Ethereum diamond -->
  <g transform="translate(355,30)" opacity="0.4">
    <polygon points="0,15 10,0 20,15 10,20" fill="#fff"/>
    <polygon points="0,15 10,20 20,15 10,30" fill="#fff" opacity="0.7"/>
  </g>
</svg>
